<svg id="visual" viewBox="0 0 2560 1440" width="2560" height="1440" xmlns="http://www.w3.org/2000/svg" xmlns:xlink="http://www.w3.org/1999/xlink" version="1.1"><rect x="0" y="0" width="2560" height="1440" fill="#232324"></rect><path d="M0 874L61 879.8C122 885.7 244 897.3 365.8 909C487.7 920.7 609.3 932.3 731.2 955.3C853 978.3 975 1012.7 1097 1010.7C1219 1008.7 1341 970.3 1463 952C1585 933.7 1707 935.3 1828.8 951C1950.7 966.7 2072.3 996.3 2194.2 985.7C2316 975 2438 924 2499 898.5L2560 873L2560 1441L2499 1441C2438 1441 2316 1441 2194.2 1441C2072.3 1441 1950.7 1441 1828.8 1441C1707 1441 1585 1441 1463 1441C1341 1441 1219 1441 1097 1441C975 1441 853 1441 731.2 1441C609.3 1441 487.7 1441 365.8 1441C244 1441 122 1441 61 1441L0 1441Z" fill="#8a00d5"></path><path d="M0 965L61 967.3C122 969.7 244 974.3 365.8 983.5C487.7 992.7 609.3 1006.3 731.2 1005.5C853 1004.7 975 989.3 1097 1002.3C1219 1015.3 1341 1056.7 1463 1081.2C1585 1105.7 1707 1113.3 1828.8 1095.3C1950.7 1077.3 2072.3 1033.7 2194.2 1012.7C2316 991.7 2438 993.3 2499 994.2L2560 995L2560 1441L2499 1441C2438 1441 2316 1441 2194.2 1441C2072.3 1441 1950.7 1441 1828.8 1441C1707 1441 1585 1441 1463 1441C1341 1441 1219 1441 1097 1441C975 1441 853 1441 731.2 1441C609.3 1441 487.7 1441 365.8 1441C244 1441 122 1441 61 1441L0 1441Z" fill="#6b08a7"></path><path d="M0 1161L61 1160C122 1159 244 1157 365.8 1152.5C487.7 1148 609.3 1141 731.2 1123.5C853 1106 975 1078 1097 1092.5C1219 1107 1341 1164 1463 1181.2C1585 1198.3 1707 1175.7 1828.8 1170.8C1950.7 1166 2072.3 1179 2194.2 1185.5C2316 1192 2438 1192 2499 1192L2560 1192L2560 1441L2499 1441C2438 1441 2316 1441 2194.2 1441C2072.3 1441 1950.7 1441 1828.8 1441C1707 1441 1585 1441 1463 1441C1341 1441 1219 1441 1097 1441C975 1441 853 1441 731.2 1441C609.3 1441 487.7 1441 365.8 1441C244 1441 122 1441 61 1441L0 1441Z" fill="#4e0a7b"></path><path d="M0 1191L61 1196C122 1201 244 1211 365.8 1210.3C487.7 1209.7 609.3 1198.3 731.2 1208.5C853 1218.7 975 1250.3 1097 1248C1219 1245.7 1341 1209.3 1463 1204C1585 1198.7 1707 1224.3 1828.8 1242C1950.7 1259.7 2072.3 1269.3 2194.2 1263.2C2316 1257 2438 1235 2499 1224L2560 1213L2560 1441L2499 1441C2438 1441 2316 1441 2194.2 1441C2072.3 1441 1950.7 1441 1828.8 1441C1707 1441 1585 1441 1463 1441C1341 1441 1219 1441 1097 1441C975 1441 853 1441 731.2 1441C609.3 1441 487.7 1441 365.8 1441C244 1441 122 1441 61 1441L0 1441Z" fill="#330851"></path><path d="M0 1377L61 1372C122 1367 244 1357 365.8 1347.8C487.7 1338.7 609.3 1330.3 731.2 1325.7C853 1321 975 1320 1097 1315C1219 1310 1341 1301 1463 1308.3C1585 1315.7 1707 1339.3 1828.8 1350.8C1950.7 1362.3 2072.3 1361.7 2194.2 1351C2316 1340.3 2438 1319.7 2499 1309.3L2560 1299L2560 1441L2499 1441C2438 1441 2316 1441 2194.2 1441C2072.3 1441 1950.7 1441 1828.8 1441C1707 1441 1585 1441 1463 1441C1341 1441 1219 1441 1097 1441C975 1441 853 1441 731.2 1441C609.3 1441 487.7 1441 365.8 1441C244 1441 122 1441 61 1441L0 1441Z" fill="#1c002b"></path></svg>